<svg xmlns="http://www.w3.org/2000/svg" x="0px" y="0px" width="100" height="100" viewBox="0 0 120 120">
<g opacity=".35"><polygon points="24,34 24,28 7,17 7,23 11,25.588 11,32 19,37 19,42 28,47 28,41 24,39"></polygon><polygon points="113,17 96,28 96,34 96,39 92,41 92,47 101,42 101,37 109,32 109,25.588 113,23"></polygon></g><path d="M31.915,73.969h-4.582C26.994,74,21.952,72.834,19.467,69C18.428,65.418,17.5,55.714,17.5,55.714 s1.404-4.17,4.488-5.714c1.632-0.015,3.635,0.715,5.963,2.588l3.964-4.802V73.969z" opacity=".35"></path><path d="M88,74h4.609c0.341,0.031,5.414-1.135,7.913-4.969c1.045-3.582,1.978-13.286,1.978-13.286 s-1.413-4.17-4.515-5.714c-1.642-0.015-3.657,0.715-5.998,2.588L88,47.816V74z" opacity=".35"></path><path fill="#ffa6a3" d="M31.915,69.969h-4.582C26.994,70,21.454,68.834,18.969,65c-1.039-3.582-1.967-13.286-1.967-13.286 s1.902-4.17,4.986-5.714c1.632-0.015,3.635,0.715,5.963,2.588l3.964-4.802V69.969z"></path><path d="M90,43H29v32h18.455L37,80v22.709C43.9,109.326,51.515,113,51.515,113h16.97 c0,0,7.615-3.674,14.515-10.291V80l-10.455-5H90V43z" opacity=".35"></path><path fill="#ffc1bf" d="M90,39H29v32h18.455L37,76v22.709C43.9,105.326,51.515,109,51.515,109h16.97 c0,0,7.615-3.674,14.515-10.291V76l-10.455-5H90V39z"></path><path fill="#ffa6a3" d="M88,70h4.609c0.341,0.031,5.914-1.135,8.413-4.969C102.066,61.449,103,51.745,103,51.745 s-1.913-4.17-5.015-5.714c-1.642-0.015-3.657,0.715-5.998,2.588L88,43.816V70z"></path><polygon fill="#a4e2f1" points="24,31 24,25 7,14 7,20 11,22.588 11,29 19,34 19,39 28,44 28,38 24,36"></polygon><polygon fill="#a4e2f1" points="113,14 96,25 96,31 96,36 92,38 92,44 101,39 101,34 109,29 109,22.588 113,20"></polygon><path d="M68,15H52c-14,0-27,17-27,29.939l1.061,35.675c0,9.12,5.222,16.623,10.935,22.101L37,102.634V79l23-11l23,11l0.002,23.645 l0,0.073c5.714-5.479,10.938-12.982,10.938-22.104L95,44.939C95,32,82,15,68,15z M56,63L34,74c0,0-3-4-3-12c0-11,3-17,3-17l22,13 V63z M86,74L64,63v-5l22-13c0,0,3,6,3,17C89,70,86,74,86,74z" opacity=".35"></path><path fill="#0075ff" d="M68,11H52c-14,0-27,17-27,29.939l1.061,35.675c0,9.12,5.222,16.623,10.935,22.101L37,98.634V76 l23-11l23,11l0.002,22.645l0,0.073c5.714-5.479,10.938-12.982,10.938-22.104L95,40.939C95,28,82,11,68,11z M56,59L34,70 c0,0-3-4-3-12c0-11,3-16,3-16l22,13V59z M86,70L64,59v-4l22-13c0,0,3,5,3,16C89,66,86,70,86,70z"></path><path d="M66.329,46l-1.954-5.553h-8.851L53.641,46H47.01l9.221-25.106h7.404L72.99,46H66.329z M62.659,35.265l-2.727-7.843 l-2.727,7.843H62.659z" opacity=".35"></path><g><path fill="#fff" d="M66.329,43l-1.954-5.553h-8.851L53.641,43H47.01l9.221-25.106h7.404L72.99,43H66.329z M62.659,32.265l-2.727-7.843l-2.727,7.843H62.659z"></path></g><g><path fill="#fff" d="M36,52l14,5c0,0-3.149,4.88-8.149,3.88C35.968,59.704,36,52,36,52z M84,52l-14,5 c0,0,3.149,4.88,8.149,3.88C84.032,59.704,84,52,84,52z"></path><path fill="#0075ff" d="M76.5,59c1.933,0,3.5-1.567,3.5-3.5c0-0.691-0.207-1.331-0.553-1.874l-6.406,2.288 C73.249,57.649,74.709,59,76.5,59z"></path><path fill="#0075ff" d="M40.553,53.626C40.207,54.169,40,54.809,40,55.5c0,1.933,1.567,3.5,3.5,3.5 c1.791,0,3.251-1.351,3.458-3.086L40.553,53.626z"></path><polygon fill="#ff9182" points="67,93 53,93 56.5,97 63.5,97"></polygon><polygon fill="#ff9182" points="66,83 63,83 60,85 57,83 53.975,83 47,88 73,88"></polygon></g>
</svg>